<?xml version="1.0" encoding="utf-8"?>
<!-- Generator: Adobe Illustrator 19.0.0, SVG Export Plug-In . SVG Version: 6.00 Build 0)  -->
<svg version="1.1" xmlns="http://www.w3.org/2000/svg" xmlns:xlink="http://www.w3.org/1999/xlink" x="0px" y="0px"
	 viewBox="0 0 841.9 1135.6" style="enable-background:new 0 0 841.9 1135.6;" xml:space="preserve">
<style type="text/css">
	.st0{display:none;}
	.st1{display:inline;fill:none;}
	.st2{display:inline;}
	.st3{font-family:'CenturyGothic-Bold';}
	.st4{font-size:20px;}
	.st5{font-size:16px;}
	.st6{display:inline;fill:none;stroke:#000000;stroke-width:2;stroke-miterlimit:10;}
	.st7{font-size:14px;}
	.st8{fill:none;}
	.st9{fill:none;stroke:#000000;stroke-miterlimit:10;}
	.st10{font-family:'CenturyGothic';}
	.st11{fill:none;stroke:#000000;stroke-width:2;stroke-miterlimit:10;}
	.st12{font-size:19.0476px;}
	.st13{display:inline;fill:#00AEEF;stroke:#000000;stroke-width:2;stroke-miterlimit:10;}
	.st14{font-size:13.3333px;}
	.st15{display:inline;fill:#DA1C5C;stroke:#000000;stroke-width:2;stroke-miterlimit:10;}
	.st16{display:inline;stroke:#000000;stroke-width:2;stroke-miterlimit:10;}
	.st17{display:inline;fill:#662D91;stroke:#000000;stroke-width:2;stroke-miterlimit:10;}
	.st18{display:inline;fill:#FFFFFF;stroke:#000000;stroke-width:2;stroke-miterlimit:10;}
	.st19{display:inline;fill:none;stroke:#000000;stroke-miterlimit:10;}
</style>
<g id="Calque_1" class="st0">
	<rect id="XMLID_28_" x="42.3" y="430.1" class="st1" width="107.6" height="23.8"/>
	<text id="XMLID_32_" transform="matrix(1 0 0 1 42.3341 444.8539)" class="st2 st3 st4" style="text-decoration: underline;">Modes</text>
	<rect id="XMLID_33_" x="42" y="462.8" class="st1" width="128.1" height="115.4"/>
	<text id="XMLID_34_" transform="matrix(1 0 0 1 42.0431 474.5629)" class="st2"><tspan x="0" y="0" class="st3 st5">Major</tspan><tspan x="0" y="19.2" class="st3 st5">Mixolydian</tspan><tspan x="0" y="38.4" class="st3 st5">Lydian</tspan><tspan x="0" y="57.6" class="st3 st5">Dorian</tspan><tspan x="0" y="76.8" class="st3 st5">Harmonic Major</tspan><tspan x="0" y="96" class="st3 st5">Minor</tspan></text>
	<rect id="XMLID_83_" x="310.1" y="455.1" class="st1" width="158" height="66.9"/>
	<text id="XMLID_82_" transform="matrix(1 0 0 1 310.1024 466.8846)" class="st2"><tspan x="0" y="0" class="st3 st5">restrict between  C4 </tspan><tspan x="0" y="25" class="st3 st5">and C5</tspan></text>
	<polyline id="XMLID_36_" class="st6" points="179.7,512.8 188.2,512.8 188.2,462.8 179.7,462.8 	"/>
	<polyline id="XMLID_41_" class="st6" points="179.7,523.6 188.2,523.6 188.2,570.5 179.7,570.5 	"/>
	<rect id="XMLID_35_" x="195" y="467.3" class="st1" width="103.1" height="37.8"/>
	<text id="XMLID_42_" transform="matrix(1 0 0 1 195.0221 477.6108)" class="st2"><tspan x="0" y="0" class="st3 st7">Happy</tspan><tspan x="0" y="16.8" class="st3 st7">Energetic</tspan></text>
	<rect id="XMLID_43_" x="196.4" y="530.9" class="st1" width="88" height="35"/>
	<text id="XMLID_65_" transform="matrix(1 0 0 1 196.4415 541.2162)" class="st2"><tspan x="0" y="0" class="st3 st7">Sad</tspan><tspan x="0" y="16.8" class="st3 st7">Gloomy</tspan></text>
	<rect id="XMLID_81_" x="311.4" y="422.9" class="st1" width="84.3" height="26.2"/>
	<text id="XMLID_80_" transform="matrix(1 0 0 1 311.3723 437.6026)" class="st2 st3 st4" style="text-decoration: underline;">Keys</text>
</g>
<g id="theme_selection">
	<rect id="XMLID_94_" x="95.6" y="656.6" class="st8" width="198.7" height="23.8"/>
	<text id="XMLID_93_" transform="matrix(1 0 0 1 95.5835 671.3596)" class="st3 st4" style="text-decoration: underline;">Theme Selection</text>
	<rect id="XMLID_92_" x="107.2" y="731.4" class="st8" width="103.5" height="36.8"/>
	<text id="XMLID_95_" transform="matrix(1 0 0 1 109.4046 741.734)"><tspan x="0" y="0" class="st3 st7">Current Theme</tspan><tspan x="9.5" y="16.8" class="st3 st7">(key,mode)</tspan></text>
	<rect id="XMLID_96_" x="94.2" y="721.9" class="st9" width="125.8" height="52"/>
	<rect id="XMLID_122_" x="339.5" y="744.1" class="st8" width="190.9" height="73.5"/>
	<text id="XMLID_121_" transform="matrix(1 0 0 1 357.97 754.416)"><tspan x="0" y="0" class="st3 st7">Move to relative mode </tspan><tspan x="-1.8" y="16.8" class="st10 st7">scale does not change</tspan><tspan x="32.8" y="33.6" class="st10 st7">Key changes</tspan></text>
	<rect id="XMLID_120_" x="333.9" y="731.4" class="st9" width="202.1" height="72.2"/>
	<rect id="XMLID_126_" x="359.1" y="817.7" class="st8" width="151.8" height="56.7"/>
	<text id="XMLID_89_" transform="matrix(1 0 0 1 385.2628 827.9637)"><tspan x="0" y="0" class="st3 st7">Change mode </tspan><tspan x="0" y="16.8" class="st10 st7">scale changes</tspan><tspan x="-22.9" y="33.6" class="st10 st7">key does not change</tspan></text>
	<rect id="XMLID_88_" x="333.9" y="810.6" class="st9" width="202.1" height="63.8"/>
	<rect id="XMLID_70_" x="345.6" y="897.8" class="st8" width="182.7" height="73.5"/>
	<text id="XMLID_69_" transform="matrix(1 0 0 1 397.024 908.0692)"><tspan x="0" y="0" class="st3 st7">Move to 4th </tspan><tspan x="-9.8" y="16.8" class="st10 st7">scale changes</tspan><tspan x="-3.7" y="33.6" class="st10 st7">key changes</tspan><tspan x="-41.4" y="50.4" class="st10 st7">mode does not change</tspan></text>
	<rect id="XMLID_68_" x="332.6" y="890.7" class="st9" width="203.4" height="87.3"/>
	<g id="XMLID_103_">
		<line id="XMLID_106_" x1="229.1" y1="747.9" x2="319.6" y2="747.9"/>
		<g id="XMLID_101_">
			<line id="XMLID_105_" class="st11" x1="229.1" y1="747.9" x2="307.5" y2="747.9"/>
			<g id="XMLID_102_">
				<path id="XMLID_104_" d="M319.6,747.9c-5.7,2.1-12.7,5.7-17.1,9.5l3.4-9.5l-3.4-9.5C306.8,742.2,313.9,745.8,319.6,747.9z"/>
			</g>
		</g>
	</g>
	<g id="XMLID_66_">
		<g id="XMLID_90_">
			<line id="XMLID_99_" class="st11" x1="307.5" y1="833.2" x2="251.6" y2="833.2"/>
			<g id="XMLID_91_">
				<path id="XMLID_98_" d="M319.6,833.2c-5.7-2.1-12.7-5.7-17.1-9.5l3.4,9.5l-3.4,9.5C306.8,838.9,313.9,835.3,319.6,833.2z"/>
			</g>
		</g>
	</g>
	<g id="XMLID_123_">
		<g id="XMLID_79_">
			<polyline id="XMLID_86_" class="st11" points="307.5,928.2 250.4,928.2 250.4,747.9 			"/>
			<g id="XMLID_84_">
				<path id="XMLID_85_" d="M319.6,928.2c-5.7-2.1-12.7-5.7-17.1-9.5l3.4,9.5l-3.4,9.5C306.8,933.9,313.9,930.3,319.6,928.2z"/>
			</g>
		</g>
	</g>
</g>
<g id="theme_x5F_cadence" class="st0">
	<rect id="XMLID_1_" x="69.1" y="209.4" class="st6" width="147.5" height="108.9"/>
	<rect id="XMLID_3_" x="74.6" y="187.6" class="st1" width="131.3" height="25.1"/>
	<text id="XMLID_2_" transform="matrix(1 0 0 1 101.4121 201.5742)" class="st2 st3 st12">Theme 1</text>
	<circle id="XMLID_4_" class="st13" cx="87.7" cy="228" r="6.3"/>
	<circle id="XMLID_6_" class="st13" cx="119.9" cy="227.7" r="6.3"/>
	<circle id="XMLID_7_" class="st13" cx="191.4" cy="227.8" r="6.3"/>
	<circle id="XMLID_8_" class="st13" cx="155.3" cy="227.7" r="6.3"/>
	<rect id="XMLID_9_" x="83.2" y="245.6" class="st1" width="118.3" height="50"/>
	<text id="XMLID_5_" transform="matrix(1 0 0 1 83.1875 255.4297)" class="st2"><tspan x="0" y="0" class="st3 st14">4 chords in one </tspan><tspan x="0" y="16" class="st3 st14">specified key and </tspan><tspan x="0" y="32" class="st3 st14">mode </tspan></text>
	<rect id="XMLID_39_" x="450.2" y="210.2" class="st6" width="147.5" height="108.1"/>
	<rect id="XMLID_38_" x="455.8" y="188.4" class="st1" width="131.3" height="25.1"/>
	<text id="XMLID_37_" transform="matrix(1 0 0 1 482.5781 202.3975)" class="st2 st3 st12">Theme 2</text>
	<circle id="XMLID_31_" class="st15" cx="468.9" cy="228.5" r="6.3"/>
	<circle id="XMLID_30_" class="st15" cx="501" cy="228.5" r="6.3"/>
	<circle id="XMLID_29_" class="st15" cx="572.5" cy="228.7" r="6.3"/>
	<circle id="XMLID_52_" class="st16" cx="669" cy="259.7" r="6.3"/>
	<circle id="XMLID_53_" class="st16" cx="692.9" cy="259.7" r="6.3"/>
	<circle id="XMLID_54_" class="st16" cx="718.1" cy="259.7" r="6.3"/>
	<circle id="XMLID_27_" class="st15" cx="536.4" cy="228.5" r="6.3"/>
	<rect id="XMLID_26_" x="462.4" y="246.4" class="st1" width="124.6" height="64.3"/>
	<text id="XMLID_25_" transform="matrix(1 0 0 1 462.4492 256.2524)" class="st2"><tspan x="0" y="0" class="st3 st14">New theme, </tspan><tspan x="0" y="16" class="st3 st14">selected from a </tspan><tspan x="0" y="32" class="st3 st14">modulation </tspan><tspan x="0" y="48" class="st3 st14">scheme</tspan></text>
	<rect id="XMLID_19_" x="259.9" y="209.4" class="st6" width="137.1" height="108.9"/>
	<rect id="XMLID_18_" x="263.4" y="188.4" class="st1" width="131.3" height="25.1"/>
	<text id="XMLID_17_" transform="matrix(1 0 0 1 277.0146 202.3975)" class="st2 st3 st12">Cadence 1</text>
	<circle id="XMLID_15_" class="st13" cx="277" cy="226.4" r="6.3"/>
	<circle id="XMLID_14_" class="st15" cx="379.9" cy="225.9" r="6.3"/>
	<circle id="XMLID_13_" class="st17" cx="328.5" cy="226" r="6.3"/>
	<rect id="XMLID_12_" x="270.8" y="243.6" class="st1" width="128.4" height="59.7"/>
	<text id="XMLID_11_" transform="matrix(1 0 0 1 270.7612 253.395)" class="st2"><tspan x="0" y="0" class="st3 st14">3 chords, starting </tspan><tspan x="0" y="16" class="st3 st14">from theme 1 and </tspan><tspan x="0" y="32" class="st3 st14">resolving in theme </tspan><tspan x="0" y="48" class="st3 st14">2 </tspan></text>
	<path id="XMLID_16_" class="st18" d="M194.1,172.1"/>
	<g id="XMLID_21_" class="st2">
		<g id="XMLID_45_">
			<path id="XMLID_49_" class="st11" d="M185.6,180.3c7.8-26.3,32.3-42.5,56-39.5c13.5,1.7,25.6,9.6,33.8,21.1"/>
			<g id="XMLID_47_">
				<polygon id="XMLID_48_" points="282.1,174.3 265.3,161 274.7,161.1 279.5,153 				"/>
			</g>
		</g>
	</g>
	<g id="XMLID_40_" class="st2">
		<g id="XMLID_51_">
			<path id="XMLID_59_" class="st11" d="M386.9,174.3c7.8-26.3,32.3-42.5,56-39.5c13.5,1.7,25.6,9.6,33.8,21.1"/>
			<g id="XMLID_57_">
				<polygon id="XMLID_58_" points="483.4,168.3 466.6,155 476,155.1 480.8,147 				"/>
			</g>
		</g>
	</g>
	<g id="XMLID_46_" class="st2">
		<g id="XMLID_61_">
			<path id="XMLID_64_" class="st11" d="M578.8,172.1c7.8-26.3,32.3-42.5,56-39.5c13.5,1.7,25.6,9.6,33.8,21.1"/>
			<g id="XMLID_62_">
				<polygon id="XMLID_63_" points="675.3,166.1 658.5,152.8 667.9,152.9 672.7,144.8 				"/>
			</g>
		</g>
	</g>
	<path id="XMLID_22_" class="st18" d="M271.7,158.5"/>
	<path id="XMLID_20_" class="st18" d="M276.4,161"/>
	<rect id="XMLID_23_" x="161.1" y="98.9" class="st1" width="197.7" height="41.5"/>
	<text id="XMLID_10_" transform="matrix(1 0 0 1 161.0562 108.7495)" class="st2"><tspan x="0" y="0" class="st3 st14">Choose next theme and </tspan><tspan x="0" y="16" class="st3 st14">corresponding cadence</tspan></text>
	<rect id="XMLID_56_" x="541.6" y="70.6" class="st1" width="197.7" height="56.6"/>
	<text id="XMLID_55_" transform="matrix(1 0 0 1 541.6211 80.4287)" class="st2"><tspan x="0" y="0" class="st3 st14">Repeat, with modulation </tspan><tspan x="0" y="16" class="st3 st14">scheme updated  according </tspan><tspan x="0" y="32" class="st3 st14">to user parameters</tspan></text>
</g>
<g id="song_structure" class="st0">
	<rect id="XMLID_74_" x="69.1" y="357.3" class="st1" width="198.7" height="23.8"/>
	<text id="XMLID_73_" transform="matrix(1 0 0 1 69.0803 371.9756)" class="st2 st3 st4" style="text-decoration: underline;">Song Structure</text>
	<rect id="XMLID_72_" x="82.1" y="406.8" class="st1" width="75.5" height="18.4"/>
	<text id="XMLID_71_" transform="matrix(1 0 0 1 82.066 417.0779)" class="st2 st3 st7">Beginning</text>
	<rect id="XMLID_118_" x="245.2" y="402" class="st1" width="462.8" height="18.4"/>
	<text id="XMLID_117_" transform="matrix(1 0 0 1 245.1988 412.3015)" class="st2 st10 st7">Generate new theme, rythm is at low volume and low-passed</text>
	<rect id="XMLID_67_" x="69.1" y="397.2" class="st19" width="102.6" height="27.9"/>
	<rect id="XMLID_77_" x="81.5" y="451.1" class="st1" width="75.5" height="18.4"/>
	<text id="XMLID_76_" transform="matrix(1 0 0 1 94.2501 461.4341)" class="st2 st3 st7">Verse 1</text>
	<rect id="XMLID_75_" x="68.6" y="441.6" class="st19" width="102.6" height="27.9"/>
	<rect id="XMLID_112_" x="82.1" y="490.3" class="st1" width="75.5" height="18.4"/>
	<text id="XMLID_111_" transform="matrix(1 0 0 1 98.1329 500.5635)" class="st2 st3 st7">Bridge</text>
	<rect id="XMLID_110_" x="69.1" y="480.7" class="st19" width="102.6" height="27.9"/>
	<rect id="XMLID_109_" x="81" y="527.8" class="st1" width="75.5" height="18.4"/>
	<text id="XMLID_108_" transform="matrix(1 0 0 1 93.7272 538.0625)" class="st2 st3 st7">Verse 2</text>
	<rect id="XMLID_107_" x="68" y="518.2" class="st19" width="102.6" height="27.9"/>
	<line id="XMLID_116_" class="st16" x1="182.6" y1="411.2" x2="227.9" y2="411.2"/>
	<rect id="XMLID_125_" x="245.2" y="448.4" class="st1" width="216.7" height="18.4"/>
	<text id="XMLID_124_" transform="matrix(1 0 0 1 245.1988 458.6718)" class="st2 st10 st7">Rythm is at full volume</text>
	<line id="XMLID_119_" class="st16" x1="182.6" y1="457.6" x2="227.9" y2="457.6"/>
	<rect id="XMLID_129_" x="245.2" y="485.5" class="st1" width="333" height="18.4"/>
	<text id="XMLID_128_" transform="matrix(1 0 0 1 245.1988 495.787)" class="st2 st10 st7">Generate new theme</text>
	<line id="XMLID_127_" class="st16" x1="182.6" y1="494.7" x2="227.9" y2="494.7"/>
	<rect id="XMLID_132_" x="244.2" y="523" class="st1" width="333" height="18.4"/>
	<text id="XMLID_131_" transform="matrix(1 0 0 1 244.2427 533.286)" class="st2 st10 st7">Generate new theme</text>
	<line id="XMLID_130_" class="st16" x1="181.7" y1="532.2" x2="226.9" y2="532.2"/>
	<rect id="XMLID_141_" x="80.3" y="569.7" class="st1" width="75.5" height="18.4"/>
	<text id="XMLID_140_" transform="matrix(1 0 0 1 105.5929 580.0502)" class="st2 st3 st7">End</text>
	<rect id="XMLID_139_" x="67.3" y="560.2" class="st19" width="102.6" height="27.9"/>
	<rect id="XMLID_138_" x="244.5" y="569.7" class="st1" width="324.4" height="18.4"/>
	<text id="XMLID_137_" transform="matrix(1 0 0 1 244.4812 580.0512)" class="st2 st10 st7">Rythm is at low volume and low-passed</text>
	<line id="XMLID_136_" class="st16" x1="181.9" y1="578.9" x2="227.1" y2="578.9"/>
</g>
</svg>
